<svg xmlns="http://www.w3.org/2000/svg" width="24" height="24" viewBox="0 0 24 24"><g fill="#010101" class="absolute-path"><path d="M12.229 21.556c3.132-.514 3.715-2.368 3.739-2.45l.095-.32h-.335c-2.18 0-3.53-.385-3.53-2.3 0-2.396 1.7-3.39 2.61-3.39 2.575 0 2.68 3.895 2.68 3.934l.005.245h1.925c.613 0 1.35-.06 1.61-.528.524-.926.106-2.8-.072-3.476l1.34-.361c.199.723.738 2.992.096 4.338-.532 1.12-1.486 1.536-3.523 1.536-.388 0-.808-.015-1.258-.038l-.247-.013-.016.247c-.008.126-.244 3.038-4.594 3.882zm2.5-6.92c-.625 0-1.121.64-1.18 1.523a1.028 1.028 0 00.236.81 1.179 1.179 0 00.892.326h1.47v-.25c.001-1.419-.583-2.41-1.419-2.41zM9.108 18.925a3.55 3.55 0 01-2.694-1.098l-.216-.19-.16.241a2.423 2.423 0 01-2.023.936 3.807 3.807 0 01-.888-.112c-2.089-.508-2.089-2.296-2.089-3.257V9.89l1.39 1.397v4.337a1.423 1.423 0 001.183 1.665 1.494 1.494 0 00.284.027 2.186 2.186 0 001.833-1.444c.76-1.798 1.598-2.599 2.72-2.599a2.637 2.637 0 012.079.843 3.718 3.718 0 01.733 2.826 2.032 2.032 0 01-2.152 1.982zm-.42-4.13c-1.214 0-1.633 1.4-1.65 1.46l-.04.137.097.103a2.527 2.527 0 001.753 1.016 1.779 1.779 0 00.537-.088c.427-.146.631-.654.524-1.294-.107-.642-.534-1.334-1.22-1.334zM22.858 10.753l-.97.97-.97-.97.97-.97zM20.317 10.753l-.97.97-.97-.97.97-.97zM7.286 2.179l-.97.97-.971-.97.97-.97z" class="absolute-path"/><path d="M6.264 10.966c-2.75 0-4.404-1.305-4.657-3.674a8.86 8.86 0 0 1 .692-4.198l1.253.527c-.276.752-1.026 3.125-.114 4.627a2.728 2.728 0 0 0 2.264 1.23c.662.055.943.058 1.008.058A3.002 3.002 0 0 0 9.54 7.91c.728-1.561.043-3.789-.385-4.655l1.441-.495c.338.732 1.27 3.796.245 5.93-.686 1.43-2.119 2.193-4.258 2.27a8.782 8.782 0 0 1-.318.006z" class="absolute-path"/></g></svg>